<svg width="268" height="82" viewBox="0 0 268 82" fill="none" xmlns="http://www.w3.org/2000/svg">
<path d="M102.75 33.4H96.7L90.95 66H85.7L88.65 49.25H66.75L65.55 55.85C65.45 56.3833 65.4 56.9167 65.4 57.45C65.4 58.85 65.7667 59.95 66.5 60.75C67.2333 61.55 68.3333 61.95 69.8 61.95C71.4 61.95 72.7 61.3833 73.7 60.25C74.7 59.1167 75.35 57.6167 75.65 55.75H80.7C80.3333 58.9833 79.1333 61.5833 77.1 63.55C75.1 65.4833 72.5 66.45 69.3 66.45C66.4333 66.45 64.2 65.6667 62.6 64.1C61.0333 62.5 60.25 60.3833 60.25 57.75C60.25 56.9167 60.3167 56.1167 60.45 55.35L62.2 45.45H66.6C69.3 45.45 71.45 44.75 73.05 43.35C74.65 41.95 75.6667 40.0333 76.1 37.6L76.85 33.4H59.3L60.1 29H103.55L102.75 33.4ZM91.45 33.4H82.1L81.3 37.6C80.8 40.6 79.5667 43.05 77.6 44.95H89.4L91.45 33.4ZM94.9133 72.8C94.5133 75.5333 93.2799 77.6667 91.2133 79.2C89.1133 80.7667 86.4633 81.55 83.2633 81.55C80.2966 81.55 77.8133 80.85 75.8133 79.45C73.8133 78.0833 72.8133 76.0167 72.8133 73.25C72.8133 72.35 72.8966 71.5167 73.0633 70.75H77.7633C77.6299 71.3167 77.5633 71.9333 77.5633 72.6C77.5633 74.2333 78.1299 75.45 79.2633 76.25C80.3633 77.05 81.8299 77.45 83.6633 77.45C85.4966 77.45 87.0133 77.0333 88.2133 76.2C89.4133 75.3667 90.1299 74.2 90.3633 72.7C90.3966 72.5 90.4133 72.2167 90.4133 71.85C90.4133 70.8833 90.0966 70.0667 89.4633 69.4C88.7966 68.7667 87.8633 68.45 86.6633 68.45H85.2633L86.0133 64.35H87.4133C89.8133 64.35 91.6799 64.9833 93.0133 66.25C94.3466 67.55 95.0133 69.25 95.0133 71.35C95.0133 71.65 94.9799 72.1333 94.9133 72.8ZM113.018 50.385L124.088 66H117.383L107.753 52.005L105.278 66H100.148L105.683 34.725H110.813L108.293 48.99L122.963 34.725H129.398L113.018 50.385ZM139.245 34.725L135.735 54.57C135.615 55.17 135.555 55.785 135.555 56.415C135.555 58.185 136.065 59.52 137.085 60.42C138.135 61.29 139.62 61.725 141.54 61.725C143.79 61.725 145.635 61.125 147.075 59.925C148.545 58.725 149.49 56.94 149.91 54.57L153.42 34.725H158.55L155.04 54.57C154.59 57.12 153.645 59.28 152.205 61.05C150.795 62.82 149.085 64.14 147.075 65.01C145.065 65.88 142.935 66.315 140.685 66.315C137.625 66.315 135.135 65.535 133.215 63.975C131.325 62.415 130.38 60.15 130.38 57.18C130.38 56.19 130.455 55.32 130.605 54.57L134.115 34.725H139.245ZM202.309 33.4H196.209L190.459 66H185.209L188.859 45.3H180.159C181.059 46.6 181.509 48.0667 181.509 49.7C181.509 50.0667 181.443 50.6833 181.309 51.55C180.976 53.45 180.259 55.1 179.159 56.5C178.059 57.9 176.709 58.9833 175.109 59.75C173.509 60.4833 171.809 60.85 170.009 60.85C167.276 60.85 165.059 60.0833 163.359 58.55C161.693 56.9833 160.859 54.95 160.859 52.45C160.859 51.85 160.909 51.2333 161.009 50.6C161.576 47.5 162.993 45.1167 165.259 43.45C167.559 41.75 170.343 40.9 173.609 40.9H189.609L190.959 33.4H159.959L160.709 29H203.059L202.309 33.4ZM177.309 49.75C177.309 48.4167 176.876 47.35 176.009 46.55C175.143 45.7167 173.993 45.3 172.559 45.3C170.859 45.3 169.376 45.8333 168.109 46.9C166.843 47.9333 166.059 49.2667 165.759 50.9C165.693 51.3667 165.659 51.7167 165.659 51.95C165.659 53.3167 166.093 54.4 166.959 55.2C167.859 56 169.076 56.4 170.609 56.4C171.809 56.4 172.926 56.1 173.959 55.5C174.993 54.9 175.809 54.1 176.409 53.1C177.009 52.0667 177.309 50.95 177.309 49.75Z" fill="white"/>
<g clip-path="url(#clip0_2_12)">
<path d="M35.3386 56.5724C35.0474 56.5468 34.7563 56.5083 34.479 56.4698C34.7702 56.5083 35.0613 56.5339 35.3386 56.5724Z" fill="white"/>
<path d="M24.9545 51.1565C22.6948 47.0883 16.5393 39.5038 10.8136 35.7693C5.3375 32.176 3.24409 32.8048 1.87159 33.3695C0.291136 34.0368 0 36.2955 0 37.6173C0 38.9392 0.790227 48.5 1.30318 50.0913C2.99455 55.353 9.02523 57.1368 14.5707 56.5722C14.848 56.5337 15.1391 56.4952 15.4302 56.4695C15.1391 56.508 14.8618 56.5465 14.5707 56.5722C6.43273 57.6887 -0.790228 60.435 8.6925 70.2012C19.118 80.1983 22.972 68.058 24.9545 61.9108C26.937 68.058 29.2245 79.762 41.0364 70.2012C49.9091 61.9108 43.4764 57.6887 35.3384 56.5722C35.0473 56.5465 34.7561 56.508 34.4789 56.4695C34.77 56.508 35.0611 56.5337 35.3384 56.5722C40.8839 57.1497 46.9145 55.3658 48.6059 50.0913C49.1189 48.5 49.9091 38.952 49.9091 37.6173C49.9091 36.2827 49.618 34.0368 48.0375 33.3695C46.665 32.792 44.5716 32.176 39.0955 35.7565C33.3698 39.491 27.2143 47.0755 24.9545 51.1437V51.1565Z" fill="url(#paint0_linear_2_12)"/>
</g>
<defs>
<linearGradient id="paint0_linear_2_12" x1="24.9545" y1="32.9268" x2="24.9545" y2="74.0115" gradientUnits="userSpaceOnUse">
<stop stop-color="#0B7AFF"/>
<stop offset="1" stop-color="#59B9FF"/>
</linearGradient>
<clipPath id="clip0_2_12">
<rect width="49.9091" height="41.0667" fill="white" transform="translate(0 32.9333)"/>
</clipPath>
</defs>
</svg>
